<?xml version="1.0" standalone="no"?>
<!DOCTYPE svg PUBLIC "-//W3C//DTD SVG 20010904//EN"
 "http://www.w3.org/TR/2001/REC-SVG-20010904/DTD/svg10.dtd">
<svg version="1.0" xmlns="http://www.w3.org/2000/svg"
 width="400.000000pt" height="400.000000pt" viewBox="0 0 400.000000 400.000000"
 preserveAspectRatio="xMidYMid meet">
<metadata>
Created by potrace 1.11, written by Peter Selinger 2001-2013
</metadata>
<g transform="translate(0.000000,400.000000) scale(0.100000,-0.100000)"
fill="#000000" stroke="none">
<path d="M1241 3188 c-19 -5 -44 -16 -55 -24 -49 -34 -340 -333 -359 -369 -22
-40 -22 -43 -24 -775 -1 -628 1 -743 13 -789 14 -50 29 -67 192 -231 157 -156
183 -178 226 -190 40 -11 189 -14 780 -13 708 0 733 1 776 20 55 24 361 325
393 387 22 41 22 45 22 781 1 461 -3 753 -9 775 -5 19 -17 46 -27 60 -33 49
-329 335 -366 355 -37 19 -59 20 -783 22 -471 1 -758 -2 -779 -9z m1452 -249
c27 -14 241 -229 255 -255 6 -12 9 -272 8 -697 l-1 -678 -131 -129 -131 -130
-144 0 c-79 -1 -389 -1 -688 -1 l-545 0 -130 130 -131 131 -2 668 c-2 367 0
677 2 689 5 23 224 251 260 271 29 16 1348 17 1378 1z"/>
<path d="M1535 2499 c-114 -35 -205 -138 -227 -256 -14 -78 -5 -123 33 -159
25 -24 39 -29 79 -29 80 0 105 28 139 155 4 16 20 32 44 44 32 15 42 16 68 6
37 -16 59 -46 59 -83 0 -63 62 -127 123 -127 76 0 129 58 129 140 -1 56 -37
153 -73 197 -90 111 -239 155 -374 112z"/>
<path d="M2510 2482 c-45 -21 -322 -216 -336 -237 -23 -36 -28 -88 -11 -122
26 -50 53 -67 110 -67 50 -1 58 3 197 98 183 125 186 127 200 150 32 51 12
139 -39 169 -29 17 -93 22 -121 9z"/>
<path d="M1384 1714 c-89 -43 -87 -186 3 -223 21 -8 195 -11 640 -9 l613 3 32
33 c29 29 33 38 33 88 0 53 -2 58 -38 89 l-38 33 -607 0 c-514 1 -612 -2 -638
-14z"/>
</g>
</svg>
